<?xml version="1.0" encoding="UTF-8"?>
<!DOCTYPE svg PUBLIC "-//W3C//DTD SVG 1.1//EN" "http://www.w3.org/Graphics/SVG/1.1/DTD/svg11.dtd">
<!-- Creator: CorelDRAW 2021 (64-Bit) -->
<svg xmlns="http://www.w3.org/2000/svg" xml:space="preserve" width="38.0762mm" height="7.5353mm" version="1.1" style="shape-rendering:geometricPrecision; text-rendering:geometricPrecision; image-rendering:optimizeQuality; fill-rule:evenodd; clip-rule:evenodd"
viewBox="0 0 1376.29 272.37"
 xmlns:xlink="http://www.w3.org/1999/xlink"
 xmlns:xodm="http://www.corel.com/coreldraw/odm/2003">
 <defs>
  <style type="text/css">
   <![CDATA[
    .fil3 {fill:#F08519}
    .fil4 {fill:#B95C32}
    .fil5 {fill:#B95C32}
    .fil2 {fill:#F08519;fill-rule:nonzero}
    .fil0 {fill:#1ECDD6;fill-rule:nonzero}
    .fil1 {fill:#1ECDD6;fill-rule:nonzero}
   ]]>
  </style>
 </defs>
 <g id="Layer_x0020_1">
  <metadata id="CorelCorpID_0Corel-Layer"/>
  <path class="fil0" d="M116.91 155.16c14.28,15.71 29.07,32.34 44.38,49.88 4.69,5.3 8.16,9.48 10.4,12.55 2.24,3.06 4.29,6.78 6.12,11.17 1.84,4.39 2.55,8.62 2.14,12.7 -0.82,7.14 -3.67,13.06 -8.57,17.75 -6.12,5.92 -13.06,8.57 -20.81,7.96 -2.24,-0.2 -4.33,-0.61 -6.27,-1.23 -1.94,-0.61 -3.87,-1.68 -5.81,-3.21 -1.94,-1.53 -3.67,-2.96 -5.2,-4.28 -1.53,-1.33 -3.47,-3.47 -5.81,-6.43 -2.35,-2.96 -4.18,-5.41 -5.51,-7.34 -1.33,-1.94 -3.52,-5 -6.58,-9.18 -3.06,-4.18 -5.51,-7.6 -7.34,-10.25 -12.04,-16.12 -24.99,-32.03 -38.86,-47.74 -2.24,22.44 -7.04,43.35 -14.39,62.73 -1.22,2.86 -2.3,5.31 -3.21,7.34 -0.92,2.04 -1.99,4.03 -3.21,5.97 -1.22,1.94 -2.65,3.62 -4.28,5.05 -1.63,1.43 -3.37,2.65 -5.2,3.67 -4.7,2.24 -9.74,3.16 -15.15,2.75 -5.41,-0.41 -10.05,-2.04 -13.93,-4.89 -4.49,-3.47 -7.24,-8.42 -8.26,-14.84 -1.02,-6.43 -1.53,-17.6 -1.53,-33.51 0,-36.11 0.92,-67.32 2.75,-93.65 1.23,-20.2 2.65,-33.97 4.28,-41.31 1.63,-7.34 5.1,-13.06 10.41,-17.14 8.16,-6.53 16.83,-8.67 26.01,-6.43 8.77,2.04 15.71,8.36 20.81,18.97 1.02,2.24 1.79,4.59 2.3,7.04 0.51,2.45 0.82,4.59 0.92,6.43 0.1,1.84 0.36,5.61 0.77,11.32 0.61,12.04 1.43,24.38 2.45,37.03 9.59,-20.81 21.02,-39.89 34.28,-57.23 4.89,-6.33 9.33,-11.27 13.31,-14.84 3.98,-3.57 8.72,-6.07 14.23,-7.5 11.22,-3.06 20.1,-1.84 26.62,3.67 5.92,5.1 8.47,12.96 7.65,23.57 0,1.43 -0.21,2.91 -0.61,4.44 -0.41,1.53 -0.76,2.86 -1.07,3.98 -0.31,1.12 -0.92,2.5 -1.84,4.13 -0.92,1.63 -1.63,2.91 -2.14,3.82 -0.51,0.92 -1.53,2.3 -3.06,4.13 -1.53,1.84 -2.65,3.21 -3.37,4.13 -0.71,0.92 -2.09,2.6 -4.13,5.05 -2.04,2.45 -3.57,4.29 -4.59,5.51 -10,12.04 -19.69,24.79 -29.07,38.25zm217.29 -44.07c3.87,8.16 6.02,20.3 6.43,36.42 0.41,11.83 0.41,20.3 0,25.4 -2.45,26.93 -8.36,47.43 -17.75,61.51 -7.55,11.02 -17.6,19.43 -30.15,25.25 -12.55,5.81 -25.65,8.11 -39.32,6.89 -16.73,-1.23 -32.34,-7.75 -46.82,-19.59 -7.96,-6.12 -14.28,-13.97 -18.98,-23.56 -7.96,-15.91 -11.73,-36.83 -11.32,-62.74 0.2,-9.39 0.46,-16.37 0.76,-20.96 0.31,-4.59 1.43,-10.61 3.37,-18.05 1.94,-7.45 4.94,-13.72 9.03,-18.82 2.65,-3.26 6.38,-5.82 11.17,-7.65 4.79,-1.84 9.33,-2.45 13.62,-1.84 4.7,0.61 8.57,2.19 11.63,4.74 3.06,2.55 5.3,5.41 6.73,8.57 1.43,3.16 2.5,7.24 3.21,12.24 0.72,5 1.02,9.23 0.92,12.7 -0.1,3.47 -0.25,7.91 -0.46,13.31 -0.2,5.4 -0.3,9.03 -0.3,10.86 0,9.59 3.26,16.32 9.79,20.2 6.53,3.88 13.87,3.16 22.03,-2.14 7.34,-4.9 12.04,-15.71 14.08,-32.44 0.2,-1.43 0.46,-3.72 0.76,-6.89 0.31,-3.16 0.56,-5.51 0.77,-7.04 0.21,-1.53 0.61,-3.62 1.23,-6.27 0.61,-2.65 1.28,-4.85 1.99,-6.58 0.72,-1.73 1.68,-3.73 2.91,-5.97 1.23,-2.24 2.65,-4.28 4.29,-6.12 5.3,-6.12 12.14,-8.97 20.5,-8.57 8.16,0.61 14.79,6.33 19.89,17.14zm118.43 -9.49c5.1,-4.9 11.88,-7.75 20.35,-8.57 8.47,-0.81 15.25,1.23 20.35,6.12 5.71,5.92 8.37,12.95 7.96,21.12 -2.65,42.23 -5.92,73.86 -9.8,94.87 -3.87,20.4 -11.73,34.99 -23.56,43.76 -5.51,4.28 -12.9,7.6 -22.19,9.95 -9.28,2.35 -18.11,3.52 -26.47,3.52 -4.08,0 -7.85,0 -11.32,0 -25.09,-0.61 -42.23,-6.12 -51.41,-16.53 -3.47,-4.08 -5.61,-9.08 -6.43,-14.99 -0.81,-5.92 0.41,-11.12 3.67,-15.61 3.88,-4.9 10.71,-6.63 20.51,-5.2 2.86,0.41 7.09,1.38 12.7,2.91 5.61,1.53 10.4,2.8 14.38,3.82 3.98,1.02 8.72,1.79 14.23,2.3 5.51,0.51 9.69,-0.15 12.55,-1.99 6.73,-2.86 7.65,-6.22 2.75,-10.1 -3.67,-2.86 -7.65,-4.29 -11.94,-4.29 -14.89,0.41 -27.64,-0.51 -38.25,-2.75 -13.06,-2.86 -22.14,-8.06 -27.24,-15.61 -3.67,-5.71 -5.41,-14.48 -5.2,-26.32 0.61,-18.36 1.53,-31.83 2.75,-40.4 0.61,-4.49 1.17,-7.91 1.68,-10.25 0.51,-2.35 1.38,-5.2 2.6,-8.57 1.22,-3.37 3.01,-6.07 5.35,-8.11 2.35,-2.04 5.15,-3.77 8.42,-5.2 5.51,-2.86 11.88,-3.16 19.12,-0.92 7.24,2.24 11.68,6.43 13.31,12.55 1.02,3.26 1.53,7.14 1.53,11.63 0,4.49 -0.16,9.38 -0.46,14.69 -0.31,5.3 -0.46,9.28 -0.46,11.94 0,6.32 0.92,10.81 2.75,13.46 3.26,5.71 9.89,8.67 19.89,8.87 1.63,0.21 3.26,0.26 4.9,0.16 1.63,-0.1 3.11,-0.26 4.44,-0.46 1.33,-0.21 2.6,-0.67 3.83,-1.38 1.22,-0.72 2.24,-1.79 3.06,-3.21 3.06,-4.08 4.7,-12.04 4.9,-23.87 0,-1.63 -0.05,-3.78 -0.15,-6.43 -0.1,-2.65 -0.21,-4.9 -0.31,-6.73 -0.1,-1.84 -0.05,-3.98 0.15,-6.43 0.21,-2.45 0.51,-4.59 0.92,-6.43 0.41,-1.84 1.12,-3.77 2.14,-5.82 1.02,-2.04 2.35,-3.87 3.98,-5.51z"/>
  <path class="fil1" d="M1050.92 112.52c1.43,3.06 2.96,7.34 4.59,12.85 10.4,37.33 12.85,73.24 7.34,107.72 -0.61,4.69 -1.94,8.72 -3.98,12.09 -2.04,3.37 -4.8,6.07 -8.26,8.11 -3.47,2.04 -7.65,3.06 -12.55,3.06 -5.51,0 -10,-2.4 -13.47,-7.19 -3.47,-4.8 -5.2,-10.15 -5.2,-16.07 0.2,11.63 -3.16,20.2 -10.1,25.71 -6.94,5.51 -16.93,9.28 -29.99,11.32 -14.69,2.24 -30.35,-0.3 -46.97,-7.65 -16.63,-7.34 -29.64,-18.77 -39.02,-34.28 -6.12,-10 -10.15,-20.86 -12.09,-32.59 -1.94,-11.73 -1.38,-23.77 1.68,-36.11 3.06,-12.34 8.77,-23.21 17.14,-32.59 6.73,-7.55 14.89,-13.77 24.48,-18.67 9.59,-4.89 19.43,-8.06 29.53,-9.48 10.1,-1.43 20.05,-0.31 29.84,3.37 9.8,3.67 17.85,9.9 24.18,18.67 -0.61,-4.08 0,-8.06 1.84,-11.94 1.84,-3.88 4.49,-6.94 7.96,-9.18 3.47,-2.24 7.34,-3.31 11.63,-3.21 4.28,0.1 8.16,1.28 11.63,3.52 3.88,2.65 7.14,6.84 9.8,12.55zm-58.76 71.61c1.02,-13.26 -2.35,-23.16 -10.1,-29.69 -0.81,-0.61 -1.73,-1.22 -2.75,-1.84 -1.02,-0.61 -2.91,-1.63 -5.66,-3.06 -2.75,-1.43 -5.41,-2.14 -7.96,-2.14 -2.55,0 -5.66,0.41 -9.34,1.23 -6.94,2.65 -12.24,9.18 -15.91,19.58 -3.06,8.98 -2.96,17.55 0.3,25.71 3.88,10 9.49,16.22 16.83,18.67 2.04,0.61 4.08,0.97 6.12,1.07 2.04,0.1 3.93,-0.05 5.66,-0.46 1.73,-0.41 3.31,-0.82 4.74,-1.22 1.43,-0.41 2.75,-0.97 3.98,-1.68 1.22,-0.72 2.09,-1.28 2.6,-1.68 0.51,-0.41 0.87,-0.71 1.07,-0.92 6.12,-4.89 9.59,-12.75 10.4,-23.56zm185.46 -79.26c6.33,3.06 12.19,6.94 17.6,11.63 5.41,4.7 8.82,9.59 10.25,14.69 2.86,9.59 1.73,18.05 -3.37,25.4 -6.33,9.18 -14.59,14.38 -24.79,15.61 -0.61,0 -2.55,-0.1 -5.82,-0.31 -21.02,-1.43 -31.52,0.51 -31.52,5.82l0.92 3.67c0.41,0.82 1.02,1.63 1.84,2.45 0.61,0.41 1.53,1.12 2.75,2.14 4.08,3.06 7.55,5.97 10.41,8.72 2.86,2.75 5.71,5.97 8.57,9.64 2.86,3.67 4.95,7.29 6.27,10.87 1.33,3.57 1.99,7.6 1.99,12.09 0,4.49 -1.02,9.08 -3.06,13.77 -4.9,11.43 -13.16,19.48 -24.79,24.18 -13.46,5.51 -27.95,5.4 -43.46,-0.31 -9.79,-3.67 -16.63,-7.24 -20.5,-10.71 -3.47,-3.06 -5.77,-6.53 -6.89,-10.41 -1.12,-3.87 -0.87,-7.96 0.76,-12.24 3.26,-6.32 11.53,-8.57 24.79,-6.73 1.02,0.2 3.01,0.61 5.97,1.22 2.96,0.61 5.66,1.12 8.11,1.53 2.45,0.41 5,0.61 7.65,0.61 2.65,0 4.89,-0.66 6.73,-1.99 1.84,-1.33 2.96,-3.21 3.37,-5.66 0.41,-2.86 -1.12,-6.02 -4.59,-9.48 -1.23,-1.02 -2.45,-1.89 -3.67,-2.6 -1.23,-0.72 -2.7,-1.43 -4.44,-2.14 -1.73,-0.71 -3.01,-1.38 -3.82,-1.99 -1.43,-0.61 -2.96,-1.38 -4.59,-2.3 -1.63,-0.92 -3.32,-1.84 -5.05,-2.75 -1.73,-0.92 -3.21,-1.68 -4.44,-2.3 -8.77,-4.9 -15.71,-11.78 -20.81,-20.66 -5.1,-8.87 -7.45,-18.21 -7.04,-28 0.61,-11.83 5.41,-22.54 14.39,-32.13 6.32,-6.94 15.5,-12.24 27.54,-15.91 7.55,-2.45 16.32,-3.67 26.32,-3.67 13.67,0.21 25.81,2.96 36.42,8.26zm189.44 103.75c4.28,2.65 6.99,7.4 8.11,14.23 1.12,6.84 0.67,12.39 -1.38,16.68 -1.43,3.87 -3.72,6.94 -6.89,9.18 -3.16,2.24 -8.31,5.1 -15.46,8.57 -13.06,6.33 -28.05,10.2 -44.99,11.63 -15.71,1.22 -28.05,0.61 -37.03,-1.84 -21.83,-5.51 -38.15,-16.12 -48.97,-31.83 -6.33,-8.97 -10.36,-19.07 -12.09,-30.3 -1.73,-11.22 -1.53,-21.83 0.61,-31.83 2.14,-10 5.56,-19.38 10.25,-28.15 1.02,-1.63 2.19,-3.52 3.52,-5.66 1.33,-2.14 3.87,-5.46 7.65,-9.94 3.77,-4.49 7.8,-8.52 12.09,-12.09 4.28,-3.57 9.9,-7.14 16.83,-10.71 6.94,-3.57 14.18,-6.07 21.73,-7.5 26.52,-5.1 47.03,-1.12 61.51,11.94 1.02,0.82 2.09,1.84 3.21,3.06 1.12,1.23 2.7,3.31 4.74,6.27 2.04,2.96 3.78,5.97 5.2,9.03 1.43,3.06 2.55,6.78 3.37,11.17 0.82,4.38 0.92,8.82 0.31,13.31 -1.02,6.94 -3.52,13.31 -7.5,19.13 -3.98,5.81 -8.62,10.45 -13.92,13.92 -9.79,6.12 -24.07,8.47 -42.84,7.04 -2.04,0 -4.29,-0.2 -6.73,-0.61 -2.45,-0.41 -4.44,-0.72 -5.97,-0.92 -1.53,-0.21 -3.01,-0.36 -4.44,-0.46 -1.43,-0.1 -2.5,-0.1 -3.21,0 -0.71,0.1 -1.27,0.46 -1.68,1.07 -0.61,1.23 0.2,3.21 2.45,5.97 2.24,2.75 4.9,4.95 7.96,6.58 10.2,6.12 24.28,8.06 42.23,5.81 2.04,-0.2 5.2,-0.82 9.49,-1.84 4.28,-1.02 8.11,-1.89 11.48,-2.6 3.37,-0.72 6.99,-1.02 10.87,-0.92 3.87,0.1 7.04,0.97 9.49,2.6zm-63.35 -79.26c-7.14,0.2 -12.9,2.65 -17.29,7.34 -4.39,4.69 -4.44,9.79 -0.16,15.3 0.41,0.61 0.92,1.23 1.53,1.84 4.49,4.9 10.4,6.53 17.75,4.9 6.33,-1.23 10.61,-4.34 12.85,-9.34 2.24,-5 1.94,-9.64 -0.92,-13.92 -2.86,-4.28 -7.45,-6.33 -13.77,-6.12z"/>
  <path class="fil2" d="M1185.67 48.07c0.08,1.05 -0.09,2.07 -0.51,3.05 -0.42,0.98 -1,1.84 -1.75,2.59 -0.75,0.75 -1.62,1.34 -2.6,1.75 -0.98,0.41 -1.96,0.62 -2.93,0.62 -1.05,0 -2.07,-0.23 -3.05,-0.68 -0.98,-0.45 -1.84,-1.05 -2.59,-1.8 -0.75,-0.75 -1.34,-1.62 -1.75,-2.59 -0.41,-0.98 -0.62,-2 -0.62,-3.05 0,-2.1 0.77,-3.95 2.31,-5.53 1.54,-1.58 3.4,-2.37 5.58,-2.37 2.1,0.08 3.97,0.88 5.58,2.43 1.62,1.54 2.39,3.4 2.31,5.58zm29.89 -46.24c3.76,0 7.33,1.13 10.72,3.38 1.35,0.83 2.54,1.84 3.55,3.04 1.01,1.2 1.82,2.56 2.42,4.06 0.68,1.8 0.64,3.57 -0.11,5.3 -0.52,1.2 -1.28,1.99 -2.26,2.37 -0.98,0.38 -2.03,0.34 -3.16,-0.11 -0.45,-0.3 -0.94,-0.6 -1.46,-0.9 -0.53,-0.3 -1.05,-0.56 -1.58,-0.79 -1.35,-1.05 -2.78,-1.05 -4.29,0 -1.35,0.83 -2.52,1.79 -3.5,2.88 -0.98,1.09 -1.69,2.43 -2.14,4 -0.38,1.5 -0.62,3.01 -0.73,4.51 -0.11,1.5 -0.13,3.01 -0.05,4.51l0 0.45c0.38,1.35 0.86,2.69 1.46,4 0.6,1.32 1.24,2.58 1.92,3.78 0.15,0.38 0.51,0.58 1.07,0.62 0.56,0.04 1.03,-0.13 1.41,-0.51 0.75,-0.68 1.54,-1.47 2.37,-2.37 0.6,-0.75 1.2,-1.43 1.81,-2.03 0.6,-0.6 1.28,-1.24 2.03,-1.92 0.9,-0.9 1.92,-1.39 3.05,-1.47 1.13,-0.08 2.1,0.28 2.93,1.07 0.83,0.79 1.24,1.75 1.24,2.88 -0.07,0.6 -0.15,1.17 -0.22,1.69 -0.08,0.53 -0.22,1.09 -0.45,1.69 -0.52,1.05 -1.13,2.09 -1.8,3.1 -0.68,1.02 -1.43,1.97 -2.26,2.88 -0.83,1.35 -1.77,2.48 -2.82,3.38 -1.05,1.05 -2.24,1.86 -3.55,2.43 -1.32,0.56 -2.69,0.96 -4.12,1.19 -2.56,0.45 -4.96,0.47 -7.22,0.05 -2.26,-0.41 -4.3,-1.15 -6.15,-2.2 -1.84,-1.05 -3.46,-2.41 -4.85,-4.06 -1.39,-1.65 -2.5,-3.5 -3.33,-5.53 -0.9,-2.4 -1.52,-4.79 -1.86,-7.16 -0.34,-2.37 -0.32,-4.83 0.06,-7.39 0.3,-1.73 0.58,-3.46 0.85,-5.19 0.26,-1.73 0.69,-3.46 1.3,-5.19 1.05,-3.53 2.74,-6.65 5.07,-9.36 3.61,-4.81 8.49,-7.18 14.66,-7.1zm68.8 25.6c0,1.96 -0.05,3.8 -0.17,5.53 -0.11,1.73 -0.47,3.38 -1.07,4.96 -0.23,0.6 -0.45,1.22 -0.68,1.86 -0.23,0.64 -0.49,1.26 -0.79,1.86 -0.68,1.5 -1.49,2.95 -2.43,4.34 -0.94,1.39 -1.82,2.76 -2.65,4.12 -0.6,0.83 -1.26,1.58 -1.97,2.26 -0.72,0.68 -1.52,1.24 -2.43,1.69 -1.88,1.13 -3.85,2.01 -5.92,2.65 -2.07,0.64 -4.23,1 -6.48,1.07 -4.51,0.08 -8.61,-1.24 -12.3,-3.95 -0.75,-0.6 -1.46,-1.24 -2.14,-1.92 -0.68,-0.68 -1.36,-1.39 -2.03,-2.14 -1.05,-1.2 -1.84,-2.54 -2.37,-4 -0.53,-1.47 -0.9,-2.99 -1.13,-4.57 -0.45,-4.81 -0.12,-9.44 1.01,-13.87 1.13,-4.44 2.94,-8.8 5.41,-13.08 0.83,-1.35 1.73,-2.63 2.71,-3.84 0.98,-1.2 2.18,-2.22 3.61,-3.04 0.15,-0.15 0.32,-0.26 0.51,-0.34 0.19,-0.08 0.36,-0.19 0.51,-0.34 1.43,-0.52 2.8,-1.05 4.12,-1.58 1.32,-0.52 2.73,-0.94 4.23,-1.24 1.13,-0.38 2.26,-0.52 3.38,-0.45 1.13,0.08 2.26,0.26 3.38,0.56 0.83,0.15 1.6,0.36 2.31,0.62 0.72,0.26 1.49,0.58 2.31,0.96 1.5,0.53 2.84,1.34 4,2.43 1.16,1.09 2.16,2.35 2.99,3.78 0.6,1.28 1.18,2.61 1.75,4 0.56,1.39 1.07,2.8 1.53,4.23 0.38,1.28 0.6,2.56 0.68,3.84 0.08,1.28 0.11,2.48 0.11,3.61zm-8.69 1.8c0,-0.6 0.02,-1.2 0.06,-1.8 0.04,-0.6 -0.02,-1.17 -0.17,-1.69 -0.6,-2.11 -1.35,-3.91 -2.26,-5.41 -0.9,-1.5 -1.94,-2.44 -3.1,-2.82 -1.16,-0.38 -2.41,-0.11 -3.72,0.79 -1.32,0.9 -2.65,2.75 -4,5.53 -1.13,2.26 -2.01,4.66 -2.65,7.22 -0.64,2.56 -0.96,4.63 -0.96,6.21 0,1.05 0.11,2.09 0.34,3.1 0.22,1.02 0.41,2.05 0.56,3.1 0.22,0.9 0.71,1.69 1.46,2.37 0.75,0.68 1.62,1.19 2.6,1.52 0.98,0.34 1.97,0.4 2.99,0.17 1.02,-0.22 1.94,-0.79 2.76,-1.69 0.38,-0.45 0.73,-0.88 1.07,-1.3 0.34,-0.41 0.66,-0.88 0.96,-1.41 0.3,-0.6 0.62,-1.26 0.96,-1.97 0.34,-0.71 0.66,-1.45 0.96,-2.2 1.43,-3.24 2.14,-6.47 2.14,-9.7zm17.37 13.87c0.08,-3.84 0.19,-7.69 0.34,-11.56 0.15,-3.87 0.3,-7.76 0.45,-11.68 0.08,-1.2 0.15,-2.37 0.22,-3.5 0.08,-1.13 0.19,-2.26 0.34,-3.38 0.15,-1.05 0.32,-2.11 0.51,-3.16 0.19,-1.05 0.39,-2.07 0.62,-3.04 0.52,-1.88 1.43,-3.42 2.71,-4.63 1.13,-1.13 2.69,-1.79 4.68,-1.97 1.99,-0.19 3.67,0.32 5.02,1.52 2.11,1.88 3.5,4.17 4.17,6.88 0.38,0.98 0.64,1.93 0.79,2.88 0.15,0.94 0.3,1.9 0.45,2.87 0.15,0.3 0.49,0.38 1.02,0.23 2.1,-1.5 4.49,-2.22 7.12,-2.14 1.58,0.15 3.16,0.6 4.74,1.35 1.9,1.13 3.55,2.44 4.98,3.95 1.43,1.5 2.71,3.12 3.84,4.85 0.22,0.3 0.41,0.62 0.56,0.96 0.15,0.34 0.34,0.66 0.56,0.96 0.22,0.22 0.45,0.19 0.68,-0.12 0.53,-0.98 1.02,-1.92 1.47,-2.82 0.47,-0.9 0.99,-1.88 1.6,-2.93 1.28,-2.18 2.82,-4.04 4.62,-5.58 1.8,-1.54 3.91,-2.84 6.34,-3.89 1.2,-0.45 2.39,-0.77 3.55,-0.96 1.16,-0.19 2.35,-0.13 3.55,0.17 4.98,0.9 9.27,3.01 12.9,6.32 1.5,1.35 2.63,2.9 3.38,4.62 0.75,1.73 1.28,3.57 1.58,5.53 0.22,1.96 0.36,3.85 0.39,5.7 0.04,1.84 0.06,3.74 0.06,5.7 0,1.58 -0.11,3.12 -0.34,4.62 -0.22,1.5 -0.45,3.01 -0.68,4.51 -0.15,1.06 -0.28,2.11 -0.39,3.16 -0.11,1.05 -0.25,2.11 -0.42,3.16 -0.22,1.58 -0.66,3.04 -1.29,4.4 -0.64,1.35 -1.64,2.56 -3.01,3.61 -1.43,1.13 -2.97,1.77 -4.58,1.92 -1.64,0.15 -3.16,-0.06 -4.61,-0.62 -1.43,-0.56 -2.67,-1.45 -3.74,-2.65 -1.05,-1.2 -1.73,-2.6 -2.03,-4.17 -0.23,-1.28 -0.28,-2.5 -0.17,-3.67 0.11,-1.16 0.25,-2.35 0.39,-3.55 0.23,-1.5 0.45,-3.01 0.68,-4.51 0.23,-1.5 0.42,-3.01 0.56,-4.51 0.08,-0.75 0.15,-1.45 0.23,-2.09 0.08,-0.64 0.11,-1.34 0.11,-2.09 -0.22,-4.59 -0.75,-7.95 -1.58,-10.09 -0.83,-2.14 -1.86,-3.18 -3.1,-3.1 -1.24,0.08 -2.57,1.17 -4,3.27 -1.43,2.11 -2.86,5.11 -4.28,9.03 -0.6,2.03 -0.98,4.04 -1.13,6.03 -0.15,1.99 -0.34,4 -0.57,6.04 -0.15,1.05 -0.26,2.12 -0.34,3.21 -0.08,1.09 -0.23,2.16 -0.45,3.21 -0.15,1.28 -0.68,2.44 -1.58,3.5 -0.38,0.38 -0.79,0.87 -1.24,1.47 -0.9,1.28 -1.97,2.2 -3.21,2.77 -1.24,0.56 -2.5,0.85 -3.78,0.85 -1.28,0 -2.54,-0.26 -3.78,-0.79 -1.24,-0.52 -2.35,-1.32 -3.33,-2.37 -0.68,-0.75 -1.2,-1.52 -1.58,-2.31 -0.38,-0.79 -0.64,-1.6 -0.79,-2.43 -0.3,-0.6 -0.49,-1.26 -0.56,-1.97 -0.08,-0.71 -0.15,-1.45 -0.22,-2.2 -0.38,-3.24 -0.62,-6.51 -0.73,-9.81 -0.11,-3.31 -0.32,-6.47 -0.62,-9.47 -0.22,-1.96 -0.73,-3.5 -1.52,-4.62 -0.79,-1.13 -1.62,-1.64 -2.48,-1.53 -0.87,0.12 -1.64,0.94 -2.31,2.48 -0.68,1.54 -1.02,4.04 -1.02,7.5 -0.15,3.38 -0.26,6.67 -0.34,9.87 -0.07,3.2 -0.19,6.45 -0.34,9.76 0,1.58 -0.32,3.01 -0.96,4.29 -0.64,1.28 -1.56,2.48 -2.77,3.61 -1.58,1.28 -3.46,1.93 -5.64,1.97 -2.18,0.04 -4.1,-0.59 -5.75,-1.86 -2.63,-2.18 -3.95,-4.74 -3.95,-7.67 -0.07,-1.5 -0.09,-3.03 -0.05,-4.57 0.04,-1.54 0.05,-3.1 0.05,-4.68z"/>
  <path class="fil3" d="M746.59 87.22c-12.65,-87.37 -69.87,-116.64 -142.01,-52.87 -72.13,63.77 -109.41,166.6 -80.07,212.98 29.34,46.38 82.07,16.63 90.75,-12.48 8.68,-29.11 26.35,-140.64 51.86,-167.98 25.51,-27.34 61.09,-30 79.46,20.34z"/>
  <path class="fil3" d="M659.48 201.73c-12.56,52.03 43.43,85.17 71.38,64.32 27.95,-20.85 48.07,-98.05 68.37,-128.01 20.3,-29.95 39.1,-22.96 45.73,-9.14 6.63,13.82 10.37,45.23 10.37,45.23 0,0 7.77,-87.36 -43.38,-97.01 -51.15,-9.65 -73.37,56.72 -92.86,91.35 -19.49,34.63 -41.83,51 -59.6,33.26z"/>
  <path class="fil4" d="M661.02 75.6c0,0 5.41,50.06 3.61,78.92 -1.8,28.86 -2.79,34.09 -5.15,47.21 3.54,3.51 8.27,5.86 13.62,7.11 14.81,1.62 31.21,-14.13 45.98,-40.37 8.34,-14.83 17.19,-35.47 28.59,-53.47l0.11 -0.18c-0.78,-8.09 0.23,-18.76 -1.19,-27.61 -18.37,-50.34 -53.95,-47.68 -79.46,-20.34 -2.1,2.25 -4.15,5.08 -6.14,8.38l0 0 -0.09 0.16 0.12 0.18z"/>
  <path class="fil5" d="M805.5 129.87c7.58,13.77 8.51,32.52 11.57,62.69 4.96,48.9 16.47,69.57 36.52,74.69 20.05,5.12 25.7,1.24 25.7,1.24 0,0 -14.99,1.28 -23.67,-99.29 -0.12,3.12 -0.29,4.93 -0.29,4.93 0,0 -1.32,-11.07 -3.78,-22.97l-0.08 -0.38 -0.08 -0.38 -0.04 -0.17 -0.04 -0.21 -0.08 -0.38 -0.08 -0.35 -0.01 -0.03 -0.08 -0.38 -0.09 -0.38 -0.03 -0.15 -0.05 -0.24 -0.08 -0.38 -0.07 -0.32 -0.01 -0.06 -0.09 -0.38 -0.09 -0.38 -0.03 -0.12 -0.06 -0.27 -0.09 -0.38 -0.07 -0.29 -0.02 -0.09 -0.09 -0.38 -0.09 -0.38 -0.02 -0.08 -0.08 -0.29 -0.09 -0.38 -0.07 -0.26 -0.03 -0.12 -0.09 -0.38 -0.1 -0.38 -0.01 -0.06 -0.08 -0.32 -0.1 -0.37 -0.06 -0.23 -0.04 -0.14 -0.1 -0.37 -0.1 -0.37 -0.01 -0.03 -0.09 -0.34 -0.1 -0.37 -0.05 -0.19 -0.05 -0.17 -0.1 -0.36 -0.1 -0.36 0 -0 -0.1 -0.36 -0.1 -0.36 -0.05 -0.16 -0.06 -0.2 -0.1 -0.35 -0.1 -0.32 -0.01 -0.03 -0.11 -0.35 -0.11 -0.35 -0.04 -0.13 -0.07 -0.22 -0.11 -0.34 -0.09 -0.29 -0.01 -0.05 -0.11 -0.34 -0.11 -0.33 -0.03 -0.1 -0.08 -0.23 -0.11 -0.33 -0.09 -0.25 -0.03 -0.08 -0.12 -0.32 -0.12 -0.32 -0.03 -0.07 -0.09 -0.24 -0.12 -0.31 -0.08 -0.22 -0.04 -0.09 -0.48 -1.21 -0.07 -0.18 -0.05 -0.11 -0.12 -0.29 -0.13 -0.29 -0.01 -0.02 -0.12 -0.26 -0.12 -0.28 -0.07 -0.15 -0.06 -0.12 -0.12 -0.27 -0.13 -0.26 -0.29 -0.58 -0.03 -0.07 -0.27 -0.5 -0.07 -0.13 -0.24 -0.43 -0.03 -0.06 -0.17 -0.29c-0.19,-0.32 -0.39,-0.63 -0.6,-0.94l-0.07 -0.11 -0.15 -0.22 -0.25 -0.36 -0.04 -0.05 -0.26 -0.35 -0.12 -0.16 -0.07 -0.09 -0.37 -0.46 -0.03 -0.04 -0.4 -0.48 -0.02 -0.02 -0.4 -0.45 -0.07 -0.08 -0.12 -0.12 -0.35 -0.36 -0.02 -0.02 -0.32 -0.32 -0.06 -0.05 -0.33 -0.3 -0.07 -0.07 -0.23 -0.21 -0.09 -0.08 -0.31 -0.27 -0.12 -0.1 -0.18 -0.14 -0.08 -0.07 -0.41 -0.31 -0.43 -0.32 -0.07 -0.05 -0.5 -0.34 -0.01 -0.01 -0.52 -0.33 -0.05 -0.03 -0.49 -0.28 -0.42 -0.23 -0.18 -0.09 -0.37 -0.18 -0.23 -0.11 -0.39 -0.17 -0.15 -0.07 -0.46 -0.18 -0.18 -0.07 -0.39 -0.14 -0.23 -0.08 -0.4 -0.13 -0.03 -0.01 -0.54 -0.16 -0.06 -0.01 -0.61 -0.15c-1.23,-0.28 -2.53,-0.42 -3.87,-0.41l-0.03 0c-4.02,0.03 -8.47,1.42 -13.19,4.66l-0.08 0.05 -0.72 0.51 -0.07 0.05c-1.8,1.31 -3.65,2.9 -5.52,4.77l-0.18 0.18 -0.7 0.72 -0.1 0.1 -0.73 0.78 -0.14 0.15 -0.73 0.81 -0.03 0.04z"/>
 </g>
</svg>
